<mxfile host="65bd71144e">
    <diagram id="Evxrvwh22S7YI41lDi4x" name="Page-1">
        <mxGraphModel dx="834" dy="950" grid="1" gridSize="10" guides="1" tooltips="1" connect="1" arrows="1" fold="1" page="1" pageScale="1" pageWidth="850" pageHeight="1100" math="0" shadow="0">
            <root>
                <mxCell id="0"/>
                <mxCell id="1" parent="0"/>
                <mxCell id="49" value="" style="image;html=1;image=img/lib/clip_art/finance/Coins_128x128.png;fontFamily=Lucida Console;fontSize=75;fontColor=#5c5757;" vertex="1" parent="1">
                    <mxGeometry x="130" y="280" width="230" height="225" as="geometry"/>
                </mxCell>
                <mxCell id="48" value="" style="aspect=fixed;perimeter=ellipsePerimeter;html=1;align=center;shadow=0;dashed=0;spacingTop=3;image;image=img/lib/active_directory/internet_cloud.svg;fontFamily=Lucida Console;fontSize=75;fontColor=#5c5757;" vertex="1" parent="1">
                    <mxGeometry x="590" y="330" width="158.73" height="100" as="geometry"/>
                </mxCell>
                <mxCell id="46" value="&lt;h1&gt;&lt;font color=&quot;#efebeb&quot; face=&quot;Lucida Console&quot;&gt;&lt;span style=&quot;font-size: 75px;&quot;&gt;CRYPTOGRAPHY&lt;/span&gt;&lt;/font&gt;&lt;/h1&gt;" style="text;strokeColor=none;align=center;fillColor=none;html=1;verticalAlign=middle;whiteSpace=wrap;rounded=0;" vertex="1" parent="1">
                    <mxGeometry x="395" y="420" width="60" height="20" as="geometry"/>
                </mxCell>
                <mxCell id="47" value="&lt;h1&gt;&lt;font color=&quot;#5c5757&quot; face=&quot;Lucida Console&quot;&gt;&lt;span style=&quot;font-size: 75px;&quot;&gt;CRYPTOGRAPHY&lt;/span&gt;&lt;/font&gt;&lt;/h1&gt;" style="text;strokeColor=none;align=center;fillColor=none;html=1;verticalAlign=middle;whiteSpace=wrap;rounded=0;" vertex="1" parent="1">
                    <mxGeometry x="405" y="430" width="60" height="20" as="geometry"/>
                </mxCell>
                <mxCell id="51" value="" style="image;html=1;image=img/lib/clip_art/finance/Dollar_128x128.png;fontFamily=Lucida Console;fontSize=75;fontColor=#5c5757;" vertex="1" parent="1">
                    <mxGeometry x="540" y="470" width="60" height="70" as="geometry"/>
                </mxCell>
            </root>
        </mxGraphModel>
    </diagram>
</mxfile>